<?xml version="1.0" standalone="no"?>
<!DOCTYPE svg PUBLIC "-//W3C//DTD SVG 20010904//EN"
 "http://www.w3.org/TR/2001/REC-SVG-20010904/DTD/svg10.dtd">
<svg version="1.0" xmlns="http://www.w3.org/2000/svg"
 width="176.000000pt" height="287.000000pt" viewBox="0 0 176.000000 287.000000"
 preserveAspectRatio="xMidYMid meet">
<metadata>
Created by potrace 1.15, written by Peter Selinger 2001-2017
</metadata>
<g transform="translate(0.000000,287.000000) scale(0.100000,-0.100000)"
fill="#000000" stroke="none">
<path d="M845 2859 c-237 -35 -422 -163 -519 -360 -66 -134 -86 -223 -93 -405
-6 -165 4 -220 27 -148 21 63 89 194 136 260 71 101 183 198 288 249 139 69
224 88 391 88 94 0 165 -5 215 -16 41 -10 78 -17 83 -17 12 0 -3 50 -34 110
-41 80 -61 107 -136 182 l-67 68 -115 -1 c-64 -1 -143 -5 -176 -10z"/>
<path d="M1280 2768 c123 -152 168 -333 125 -503 -33 -128 -149 -313 -233
-370 l-37 -25 92 0 c221 0 405 116 510 324 32 64 26 108 -33 225 -48 97 -136
201 -235 277 -54 41 -213 133 -232 134 -4 0 15 -28 43 -62z"/>
<path d="M222 2393 c-37 -73 -112 -272 -141 -376 -94 -335 -100 -672 -17 -957
121 -417 450 -798 870 -1006 113 -56 146 -65 146 -39 0 23 67 198 111 292 45
94 143 245 188 287 17 17 31 33 31 37 0 4 -24 13 -52 19 -97 23 -282 91 -383
140 -462 226 -720 603 -767 1118 -13 142 -3 319 26 452 8 36 12 67 11 68 -2 2
-12 -13 -23 -35z"/>
<path d="M1059 2205 c-7 -16 -13 -68 -13 -115 0 -73 4 -93 28 -142 15 -32 31
-58 34 -58 15 0 73 41 78 55 3 8 -5 29 -19 47 -39 52 -59 97 -78 173 l-17 70
-13 -30z"/>
</g>
</svg>
