<svg xmlns="http://www.w3.org/2000/svg" xmlns:xlink="http://www.w3.org/1999/xlink"><symbol viewBox="0 0 24 24" id="arrow-left" xmlns="http://www.w3.org/2000/svg"><path d="M11 23l2.8-2.8L7.6 14H24v-4H7.6l6.2-6.2L11 1 0 12l11 11z"/></symbol><symbol viewBox="0 0 24 24" id="arrow-right" xmlns="http://www.w3.org/2000/svg"><path d="M13.025 1l-2.847 2.828 6.176 6.176H0v3.992h16.354l-6.176 6.176L13.025 23 24 12z"/></symbol><symbol viewBox="0 0 80 80" id="burger-base" xmlns="http://www.w3.org/2000/svg"><path class="cst0" d="M61.3 18.9l-21.2-8.8-21.2 8.8-8.8 21.3 8.8 21.2 21.3 8.7 21.2-8.8 8.7-21.2z"/></symbol><symbol id="burger-dots" viewBox="0 0 80 80" xmlns="http://www.w3.org/2000/svg"><style>.dst0{fill:#fff}</style><circle class="dst0" cx="40.1" cy="5.2" r="1.9"/><circle class="dst0" cx="40.1" cy="75.1" r="1.9"/><g><circle class="dst0" cx="5.1" cy="40.1" r="1.9"/><circle class="dst0" cx="75.1" cy="40.1" r="1.9"/></g></symbol><symbol id="burger-line" viewBox="0 0 80 80" xmlns="http://www.w3.org/2000/svg"><style>.est0{fill:#fff}</style><path class="est0" d="M65.4 14.8L40.1 4.3 14.8 14.8 4.3 40.2l10.5 25.3L40.2 76l25.3-10.5L76 40.2 65.4 14.8zm-1.1 49.5l-24.2 10-24.1-10L6 40.1l10-24.2L40.1 6l24.2 10 10 24.2-10 24.1z"/></symbol><symbol viewBox="0 0 24 24" id="close" xmlns="http://www.w3.org/2000/svg"><title>close</title><path d="M24 21l-9.2-9.1 9.1-9.2L21 0l-9.1 9.2L2.8 0 0 2.9 9.1 12 0 21.1 2.9 24l9.1-9.2 9.2 9.1z"/></symbol><symbol viewBox="0 0 470.5 470.5" id="facebook" xmlns="http://www.w3.org/2000/svg"><path d="M271.5 154.2v-40.5c0-6.1.3-10.8.8-14.1.6-3.3 1.9-6.6 3.9-9.9 2-3.2 5.2-5.5 9.7-6.7 4.5-1.2 10.4-1.9 17.9-1.9h40.5V0h-64.8c-37.5 0-64.4 8.9-80.8 26.7-16.4 17.8-24.6 44-24.6 78.7v48.8h-48.5v81.1h48.5v235.3h97.4V235.3h64.8l8.6-81.1h-73.4z"/></symbol><symbol viewBox="0 0 56.2 90" id="flag" xmlns="http://www.w3.org/2000/svg"><path d="M47.9 0h8.3v90h-8.3zM31.9 0h8.3v90h-8.3zM0 42.8h8.3V90H0zM16 42.8h8.3V90H16zM0 35.2h24.2V0H0v35.2zm13.6-14.3l-4 5.5v-6.8l-6.4-2.1 6.4-2.1V8.6l4 5.5L20 12l-4 5.5 4 5.5-6.4-2.1z"/><path d="M4.1 6.5h16V29h-16z"/></symbol><symbol viewBox="0 0 24 24" id="icon-time" xmlns="http://www.w3.org/2000/svg"><path d="M11 6v8h7v-2h-5V6h-2zm10.854 7.683l1.998.159a11.942 11.942 0 0 1-.652 2.46l-1.8-.905c.2-.551.353-1.123.454-1.714zm-2.548 7.826l-1.413-1.443a9.946 9.946 0 0 1-1.555.933l.669 1.899a11.93 11.93 0 0 0 2.299-1.389zm1.226-4.309a10.091 10.091 0 0 1-1.149 1.528l1.404 1.433a12.038 12.038 0 0 0 1.539-2.058l-1.794-.903zM0 12c0 6.627 5.375 12 12.004 12a11.98 11.98 0 0 0 3.12-.424l-.665-1.894c-.787.2-1.607.318-2.455.318-5.516 0-10.003-4.486-10.003-10S6.488 2 12.004 2c2.235 0 4.293.744 5.959 1.989l-2.05 2.049 7.015 1.354L21.573.379l-2.184 2.183A11.919 11.919 0 0 0 12.004 0C5.375 0 0 5.373 0 12zm23.773-2.359h-2.076c.163.661.261 1.344.288 2.047l2.015.161a12.144 12.144 0 0 0-.227-2.208z"/></symbol><symbol viewBox="0 0 90.1 90.1" id="instagram" xmlns="http://www.w3.org/2000/svg"><path d="M75.1 0H14.9C6.7 0 0 6.7 0 14.9v60.3c0 8.2 6.7 14.9 14.9 14.9h60.3c8.2 0 14.9-6.7 14.9-14.9V14.9C90 6.7 83.3 0 75.1 0zm5 14.9v7.9c0 2.5-2 4.5-4.5 4.5h-8.3c-2.5 0-4.5-2-4.5-4.5v-8.3c0-2.5 2-4.5 4.5-4.5h8.3c2.5 0 4.5 2 4.5 4.5v.4zM62.1 45c0 9.5-7.7 17.1-17.1 17.1-9.5 0-17.1-7.7-17.1-17.1S35.6 27.9 45 27.9 62.1 35.5 62.1 45zm13 35.1H14.9c-2.7 0-5-2.2-5-5V35.8h9.6c-1 2.9-1.6 5.9-1.6 9.2C17.9 59.9 30 72 45 72c14.9 0 27-12.1 27-27 0-3.2-.6-6.3-1.6-9.2H80v39.3c.1 2.8-2.1 5-4.9 5z"/></symbol><symbol viewBox="0 0 100 125" id="link" xmlns="http://www.w3.org/2000/svg"><path d="M61 23.038l30 25-30 25v-13c-1.7-.1-31.4-1-52 17 8.3-25.4 34.2-36.5 52-41z"/></symbol><symbol id="logo" viewBox="0 0 352.1 176.7" xmlns="http://www.w3.org/2000/svg"><style>.lst0{fill-rule:evenodd;clip-rule:evenodd;fill:#020202}</style><path class="lst0" d="M176.3 53.3l-19.7-20.6h39l-19.3 20.6zm-29.1-20.7H27l8.8 8.8 71.2 2.7-65.8 2.6 6.2 6.2 71.2 2.7-65.8 2.6 6.2 6.2 71.2 2.7L64.3 70l9 9h74.8l12-10.3-9.1 26.5 9.7 9.7 9.1-26.6-4.7 31 11.2 11.2 11.2-11.2-4.7-31 9.1 26.6 9.7-9.7-9.2-26.5 12 10.3h74.8l9-9-65.8-2.6 71.2-2.7 6.2-6.2-65.8-2.6 71.2-2.7 6.2-6.2-65.8-2.6 71.2-2.7 8.8-8.8H205.3l-29 29-29.1-29.3z"/></symbol><symbol id="logo-content" viewBox="0 0 352.1 176.7" xmlns="http://www.w3.org/2000/svg"><style>.mst0{fill-rule:evenodd;clip-rule:evenodd}</style><path class="mst0" d="M57.5 125h8.8l13.9 33h-9.7l-2.3-5.9H55.5l-2.3 5.9h-9.5l13.8-33zm8 20l-3.7-9.3-3.7 9.3h7.4zM83.4 125.2H93l7.8 12.7 7.8-12.7h9.6v32.7h-9v-18.8l-8.4 12.9h-.2l-8.3-12.8v18.7h-8.9zM124 125.2h26.4v7.7H133v5h15.7v7.1H133v5.2h17.6v7.7H124zM155.3 125.2h15.5c5 0 8.5 1.3 10.7 3.5 1.9 1.9 2.9 4.4 2.9 7.6v.1c0 5.1-2.7 8.4-6.7 10.1l7.8 11.4H175l-6.6-9.9h-4v9.9h-9.1v-32.7zm15.1 15.7c3 0 4.9-1.5 4.9-3.9v-.1c0-2.6-1.9-3.9-4.9-3.9h-6v7.9h6zM189.1 125.2h9.1V158h-9.1zM203.1 141.7c0-9.6 7.3-17.1 17.2-17.1 6.7 0 11 2.8 13.9 6.8l-6.8 5.3c-1.9-2.3-4-3.8-7.2-3.8-4.6 0-7.8 3.9-7.8 8.7v.1c0 4.9 3.2 8.7 7.8 8.7 3.4 0 5.4-1.6 7.4-4l6.8 4.9c-3.1 4.3-7.3 7.4-14.5 7.4-9.2-.1-16.8-7.3-16.8-17zM249.5 125h8.7l13.9 33h-9.7l-2.3-5.9h-12.7l-2.3 5.9h-9.5l13.9-33zm7.9 20l-3.7-9.3-3.7 9.3h7.4zM275.3 125.2h8.5l13.5 17.3v-17.3h9v32.7h-7.9L284.3 140v17.9h-9z"/><g><path class="mst0" d="M103.5 166.1h-3.9v-1.2h9.1v1.2h-3.9v10.4h-1.3zM113.8 164.9h5c1.4 0 2.6.4 3.3 1.2.6.6.9 1.4.9 2.3 0 1.9-1.3 3.1-3.2 3.4l3.6 4.8h-1.6l-3.4-4.5h-3.3v4.5h-1.3v-11.7zm4.9 5.9c1.7 0 3-.9 3-2.4 0-1.4-1.1-2.3-3-2.3h-3.6v4.7h3.6zM132.8 164.8h1.2l5.3 11.7h-1.4l-1.4-3.1h-6.3l-1.4 3.1h-1.3l5.3-11.7zm3.3 7.5l-2.6-5.9-2.7 5.9h5.3zM144.3 164.9h1.4l4.2 6.4 4.2-6.4h1.4v11.7h-1.4v-9.5l-4.2 6.3h-.1l-4.2-6.3v9.5h-1.3zM161.4 164.9h4.4c2.6 0 4.4 1.4 4.4 3.7 0 2.5-2.1 3.8-4.6 3.8h-2.8v4.1h-1.3v-11.6h-.1zm4.2 6.3c1.9 0 3.2-1 3.2-2.6 0-1.7-1.2-2.5-3.1-2.5h-2.9v5.1h2.8zM174.7 170.8c0-3.2 2.4-6.1 5.9-6.1 3.5 0 5.9 2.8 5.9 6s-2.4 6-6 6c-3.5 0-5.8-2.7-5.8-5.9zm10.5 0c0-2.7-1.9-4.8-4.6-4.8-2.7 0-4.6 2.1-4.6 4.8 0 2.6 1.9 4.8 4.6 4.8 2.7-.1 4.6-2.2 4.6-4.8zM192 164.9h1.3v10.4h6.5v1.3H192zM205.1 164.9h1.3v11.6h-1.3zM212.4 164.9h1.3l7.3 9.3v-9.3h1.3v11.7h-1.1l-7.5-9.6v9.6h-1.3zM228.2 164.9h8.4v1.2h-7.1v4h6.4v1.2h-6.4v4.1h7.2v1.2h-8.5zM241.3 174.9l.8-1c1.2 1.1 2.4 1.6 4 1.6s2.6-.8 2.6-2c0-1.1-.6-1.7-3-2.2-2.7-.6-3.9-1.4-3.9-3.4 0-1.8 1.6-3.2 3.8-3.2 1.7 0 2.9.5 4.1 1.4l-.8 1c-1.1-.9-2.2-1.3-3.4-1.3-1.5 0-2.5.8-2.5 1.9 0 1.1.6 1.7 3.2 2.3 2.6.6 3.8 1.5 3.8 3.3 0 2-1.7 3.3-4 3.3-1.8.1-3.3-.5-4.7-1.7z"/></g><g><path class="mst0" d="M139.4.3h9.7c2.4 0 4.3.7 5.5 1.9 1 1 1.4 2.1 1.4 3.6v.1c0 2.4-1.3 3.7-2.8 4.5 2.4.9 3.9 2.3 3.9 5.1v.1c0 3.8-3.1 5.7-7.8 5.7h-10V.3h.1zm12 6.2c0-1.4-1.1-2.2-3-2.2h-4.5v4.4h4.2c2 .1 3.3-.6 3.3-2.2zm-2.2 6.1h-5.3v4.6h5.5c2 0 3.3-.7 3.3-2.3v-.1c-.1-1.3-1.1-2.2-3.5-2.2zM161 .3h15.8v4.1h-11.3v4.2h9.9v4.1h-9.9v4.4h11.4v4.1H161zM179.6 18.2l2.7-3.3c1.9 1.6 3.9 2.5 6.2 2.5 1.9 0 3-.7 3-2v-.1c0-1.2-.7-1.8-4.2-2.7-4.2-1.1-6.9-2.2-6.9-6.4v.1c0-3.8 3-6.3 7.3-6.3 3 0 5.6 1 7.8 2.7l-2.4 3.5c-1.9-1.3-3.7-2.1-5.4-2.1-1.8 0-2.7.8-2.7 1.8V6c0 1.4.9 1.8 4.5 2.8 4.2 1.1 6.6 2.6 6.6 6.3V15c0 4.2-3.2 6.5-7.7 6.5-3.1 0-6.3-1.1-8.8-3.3zM204.6 4.5h-6.4V.3h17.3v4.2h-6.3v16.7h-4.6z"/></g><path class="mst0" d="M222.2 13h129.9v1.3H222.2zM0 13h130.1v1.3H0zM222.2 96.4h92.9v1.3h-92.9zM37.2 96.4h92.9v1.3H37.2z"/></symbol><symbol id="logo-full" viewBox="0 0 352.1 158.7" xmlns="http://www.w3.org/2000/svg"><style>.nst0{fill:#000100}</style><path class="nst0" d="M54.9 124.8l-13.9 33h9.5l2.3-5.9h12.7l2.3 5.9h9.7l-13.9-33h-8.7zm.6 20l3.7-9.3 3.7 9.3h-7.4zM99.1 137.7L91.3 125h-9.6v32.8h8.9V139l8.4 12.8h.1l8.4-12.8v18.8h9V125H107zM132.3 144.9h15.8v-7.2h-15.8v-5h17.4V125h-26.4v32.8h26.6v-7.7h-17.6zM184.7 136.3c0-3.3-1-5.8-2.9-7.7-2.2-2.2-5.7-3.5-10.7-3.5h-15.5v32.8h9.1V148h4l6.6 9.9h10.4l-7.8-11.4c4.1-1.9 6.8-5.2 6.8-10.2zm-9.1.6c0 2.4-1.8 3.9-4.9 3.9h-6v-7.9h6c3 0 4.9 1.3 4.9 4zM190.5 125h9.1v32.8h-9.1zM222.6 150.2c-4.6 0-7.8-3.8-7.8-8.7v-.1c0-4.8 3.2-8.7 7.8-8.7 3.1 0 5.3 1.5 7.2 3.8l6.8-5.3c-2.9-4-7.2-6.8-13.9-6.8-9.9 0-17.2 7.5-17.2 17v.1c0 9.8 7.5 16.9 16.9 16.9 7.2 0 11.4-3.1 14.5-7.4l-6.8-4.9c-2.1 2.5-4.1 4.1-7.5 4.1zM252.8 124.8l-13.9 33h9.5l2.3-5.9h12.7l2.3 5.9h9.7l-13.9-33h-8.7zm.6 20l3.7-9.3 3.7 9.3h-7.4zM301.6 142.4L288.1 125h-8.4v32.8h9v-18l14 18h7.9V125h-9zM157.1 15c0-2.7-1.4-4-3.6-4.8 1.4-.8 2.5-2 2.5-4.2v-.1c0-1.3-.4-2.4-1.3-3.3-1.1-1.1-2.8-1.7-5.1-1.7h-9v19.3h9.2c4.4.1 7.3-1.7 7.3-5.2zM144.8 4.7h4.2c1.8 0 2.8.7 2.8 2v.1c0 1.4-1.2 2-3.1 2h-3.9V4.7zm0 7.6h4.9c2.2 0 3.2.8 3.2 2.1v.1c0 1.4-1.1 2.1-3 2.1h-5.1v-4.3zM176.2 16.5h-10.5v-4.1h9.1V8.7h-9.1v-4h10.4V.9h-14.6v19.4h14.7zM188 16.8c-2.2 0-4-.9-5.8-2.3l-2.5 3c2.3 2.1 5.3 3.1 8.2 3.1 4.2 0 7.1-2.2 7.1-6v-.1c0-3.4-2.2-4.8-6.1-5.8-3.3-.9-4.2-1.3-4.2-2.5v-.1c0-.9.9-1.7 2.5-1.7s3.3.7 5 1.9l2.2-3.2c-2-1.6-4.4-2.5-7.2-2.5-4 0-6.8 2.3-6.8 5.8v.1c0 3.8 2.5 4.9 6.4 5.9 3.2.8 3.9 1.4 3.9 2.5v.1c.1 1.1-1 1.8-2.7 1.8zM202.8 20.3h4.2V4.9h5.9v-4h-16v4h5.9zM222.2 10.9H347v3.3H222.2zM4.7 10.9h125.5v3.3H4.7zM222.2 95.5H327v3.3H222.2zM24.7 95.5h105.5v3.3H24.7z"/><path class="nst0" d="M278.7 78.8l9-9-65.8-2.6 71.1-2.7 6.3-6.3-65.9-2.6 71.2-2.7 6.2-6.2-65.8-2.6 71.2-2.8 8.8-8.8H204.8l-29 29-29.1-29H26.5l8.9 8.8 71.1 2.8-65.8 2.6 6.3 6.2 71.1 2.7-65.8 2.6 6.2 6.3 71.2 2.7-65.8 2.6 9 9h74.7l12.1-10.3-9.2 26.5 9.7 9.7 9-26.6-4.6 31 11.2 11.2 11.2-11.2-4.7-31 9.1 26.6 9.7-9.7-9.2-26.5 12 10.3z"/><path class="nst0" d="M195.3 32.5h-39.1l19.7 20.6z"/></symbol><symbol viewBox="0 0 80 80" id="octo" xmlns="http://www.w3.org/2000/svg"><path class="ost0" d="M61.3 18.9l-21.2-8.8-21.2 8.8-8.8 21.3 8.8 21.2 21.3 8.7 21.2-8.8 8.7-21.2z"/></symbol><symbol viewBox="0 0 80 80" id="octo-bordered" xmlns="http://www.w3.org/2000/svg"><path d="M65.5 14.7L40.1 4.2 14.7 14.7 4.2 40.2l10.5 25.4L40.2 76l25.4-10.5L76 40.1z"/></symbol><symbol viewBox="0 0 24 24" id="phone" xmlns="http://www.w3.org/2000/svg"><path d="M6.62 10.79c1.44 2.83 3.76 5.14 6.59 6.59l2.2-2.2c.27-.27.67-.36 1.02-.24 1.12.37 2.33.57 3.57.57.55 0 1 .45 1 1V20c0 .55-.45 1-1 1-9.39 0-17-7.61-17-17 0-.55.45-1 1-1h3.5c.55 0 1 .45 1 1 0 1.25.2 2.45.57 3.57.11.35.03.74-.25 1.02l-2.2 2.2z"/></symbol><symbol viewBox="0 0 24 24" id="play" xmlns="http://www.w3.org/2000/svg"><path d="M20.5 3.7L12 .2 3.6 3.7.1 12.1l3.5 8.4L12 24l8.4-3.5 3.5-8.4-3.4-8.4zM9.6 15.9V8.1l7 4-7 3.8z"/></symbol><symbol viewBox="0 0 24.7 24.7" id="plus" xmlns="http://www.w3.org/2000/svg"><path d="M24.7 11.3v2.2H0v-2.2z"/><path d="M13.4 24.7h-2.2V0h2.2z"/></symbol><symbol viewBox="0 0 24 24" id="share" xmlns="http://www.w3.org/2000/svg"><path d="M5 9c1.7 0 3 1.3 3 3s-1.3 3-3 3-3-1.3-3-3 1.3-3 3-3zm0-2c-2.8 0-5 2.2-5 5s2.2 5 5 5 5-2.2 5-5-2.2-5-5-5zm15 9c-1.2 0-2.2.5-2.9 1.3l-5.5-2.9c-.2.6-.5 1.2-.9 1.8l5.5 2.9c-.2.3-.2.6-.2.9 0 2.2 1.8 4 4 4s4-1.8 4-4-1.8-4-4-4zm0 6c-1.1 0-2-.9-2-2s.9-2 2-2 2 .9 2 2-.9 2-2 2zm0-22c-2.2 0-4 1.8-4 4 0 .3 0 .6.1.9l-5.5 2.9c.4.6.7 1.2 1 1.8l5.5-2.9c.7.8 1.7 1.3 2.9 1.3 2.2 0 4-1.8 4-4s-1.8-4-4-4zm0 6c-1.1 0-2-.9-2-2s.9-2 2-2 2 .9 2 2-.9 2-2 2z"/></symbol><symbol viewBox="0 0 24 24" id="twitter" xmlns="http://www.w3.org/2000/svg"><path d="M24 4.6c-.9.4-1.8.7-2.8.8 1-.6 1.8-1.6 2.2-2.7-1 .6-2 1-3.1 1.2-.9-1-2.2-1.6-3.6-1.6-3.2 0-5.5 3-4.8 6-4.2-.2-7.8-2.2-10.2-5.2C.4 5.4 1 8.3 3.2 9.7c-.8 0-1.6-.2-2.2-.6-.1 2.3 1.6 4.4 3.9 4.9-.7.2-1.5.2-2.2.1.6 2 2.4 3.4 4.6 3.4-2.1 1.6-4.7 2.3-7.3 2 2.2 1.4 4.8 2.2 7.5 2.2 9.1 0 14.3-7.7 14-14.6 1-.7 1.8-1.6 2.5-2.5z"/></symbol><symbol id="zoom" viewBox="0 0 23.9 23.9" xmlns="http://www.w3.org/2000/svg"><style>.vst0{clip-path:url(#vSVGID_2_)}</style><defs><path id="vSVGID_1_" d="M0 0h23.9v23.9H0z"/></defs><clipPath id="vSVGID_2_"><use xlink:href="#vSVGID_1_" overflow="visible"/></clipPath><path class="vst0" d="M11.1 9.1c-1.1 0-2 .9-2 2s.9 2 2 2 2-.9 2-2-.9-2-2-2"/><path class="vst0" d="M20.4 3.5L11.9 0 3.5 3.5 0 11.9l3.5 8.4 8.4 3.5 8.4-3.5 3.5-8.4-3.4-8.4zm-5.6 12.4l-2.1-2.1c-.5.3-1 .4-1.6.4-1.7 0-3.1-1.4-3.1-3.1C8 9.4 9.4 8 11.1 8s3.1 1.4 3.1 3.1c0 .6-.2 1.2-.5 1.7l2.1 2.1-1 1z"/></symbol></svg>
